<svg width="60" height="60" viewBox="0 0 60 60" fill="none" xmlns="http://www.w3.org/2000/svg">
<g clip-path="url(#clip0_106_52)">
<path d="M39.0448 22.4525H27.7443V0H39.0448C45.1433 0 50.1039 5.035 50.1039 11.225C50.1039 17.415 45.1433 22.4525 39.0448 22.4525ZM31.3674 18.775H39.0448C43.1457 18.775 46.4807 15.3875 46.4807 11.2275C46.4807 7.0675 43.1433 3.68 39.0448 3.68H31.3674V18.775ZM31.3674 22.4525H20.0694C13.9709 22.4525 9.01028 17.4175 9.01028 11.2275C9.01028 5.0375 13.9709 0 20.0694 0H31.3699V22.4525H31.3674ZM20.0694 3.6775C15.9684 3.6775 12.6334 7.065 12.6334 11.225C12.6334 15.385 15.9684 18.775 20.0694 18.775H27.7467V3.6775H20.0694ZM31.3674 41.225H20.0694C13.9709 41.225 9.01028 36.19 9.01028 30C9.01028 23.81 13.9709 18.775 20.0694 18.775H31.3699V41.225H31.3674ZM20.0694 22.4525C15.9684 22.4525 12.6334 25.84 12.6334 30C12.6334 34.16 15.9709 37.5475 20.0694 37.5475H27.7467V22.4525H20.0694ZM20.1285 60C13.998 60 9.00781 54.965 9.00781 48.775C9.00781 42.585 13.9684 37.55 20.0669 37.55H31.3674V48.6525C31.3674 54.91 26.3255 60 20.1285 60ZM20.0694 41.225C18.098 41.2276 16.2082 42.0237 14.8142 43.4385C13.4203 44.8534 12.636 46.7716 12.6334 48.7725C12.6334 52.935 15.9955 56.32 20.131 56.32C24.3305 56.32 27.7492 52.88 27.7492 48.65V41.225H20.0694ZM39.0448 41.225H38.8034C32.7049 41.225 27.7443 36.19 27.7443 30C27.7443 23.81 32.7049 18.775 38.8034 18.775H39.0448C45.1433 18.775 50.1039 23.81 50.1039 30C50.1039 36.19 45.1433 41.225 39.0448 41.225ZM38.8058 22.4525C34.7049 22.4525 31.3699 25.84 31.3699 30C31.3699 34.16 34.7073 37.5475 38.8058 37.5475H39.0472C43.1482 37.5475 46.4832 34.16 46.4832 30C46.4832 25.84 43.1433 22.4525 39.0448 22.4525H38.8058Z" fill="#333333"/>
</g>
<defs>
<clipPath id="clip0_106_52">
<rect width="59.1133" height="60" fill="white"/>
</clipPath>
</defs>
</svg>
