<svg width="126" height="60" viewBox="0 0 126 60" fill="none" xmlns="http://www.w3.org/2000/svg">
<path d="M3.68359 0L8.41595 54L29.6526 60L50.9445 53.9925L55.6842 0H3.68728H3.68359ZM45.3829 17.6625H20.4753L21.0687 24.4463H44.7932L43.0056 44.7788L29.6526 48.5437L16.3179 44.7788L15.4076 34.3763H21.9422L22.4066 39.6637L29.6563 41.6513L29.671 41.6475L36.9243 39.6562L37.6762 31.0687H15.1164L13.3621 11.04H45.9689L45.3829 17.6625Z" fill="#333333"/>
<path d="M70.5195 0H122.118L117.425 53.9075L96.2625 60L75.2175 53.905L70.5195 0ZM112.511 11.0325L80.1267 11.025L80.6501 17.58L105.528 17.585L104.902 24.375H88.5865L89.1762 30.8075H104.366L103.467 39.615L96.3165 41.625L89.0534 39.6L88.5914 34.325H82.1784L82.891 43.9625L96.319 48.22L109.521 44.395L112.511 11.0325Z" fill="#333333"/>
</svg>
