<svg width="448" height="164" viewBox="0 0 448 164" fill="none" xmlns="http://www.w3.org/2000/svg">
<path d="M8.34375 127.503H11.0938L14.4062 143.315C14.8021 145.545 15.0729 147.138 15.2188 148.097H15.4062C15.9271 145.597 16.2604 144.003 16.4062 143.315L20.1875 127.503H22.875L26.7188 143.315C27.0104 144.628 27.3438 146.222 27.7188 148.097H27.8438C27.8646 147.888 28.1458 146.295 28.6875 143.315L32.0312 127.503H34.7812L29.2812 150.909H26.3438L22.5625 135.284C22 132.555 21.6875 131.024 21.625 130.69H21.5C21.3958 131.253 21.2188 132.086 20.9688 133.19C20.7188 134.295 20.5625 134.992 20.5 135.284L16.7812 150.909H13.8438L8.34375 127.503ZM36.7962 142.378C36.7962 139.753 37.5046 137.628 38.9212 136.003C40.3379 134.357 42.1712 133.534 44.4212 133.534C46.7129 133.534 48.515 134.336 49.8275 135.94C51.14 137.524 51.7962 139.555 51.7962 142.034C51.7962 142.326 51.7754 142.742 51.7337 143.284H39.2337C39.2337 144.972 39.7025 146.42 40.64 147.628C41.5775 148.836 42.8796 149.44 44.5462 149.44C45.6296 149.44 46.5879 149.19 47.4212 148.69C48.2546 148.17 48.9004 147.482 49.3587 146.628L51.4212 147.253C50.9004 148.482 50.0567 149.492 48.89 150.284C47.7233 151.076 46.2754 151.472 44.5462 151.472C42.2129 151.472 40.3379 150.638 38.9212 148.972C37.5046 147.305 36.7962 145.107 36.7962 142.378ZM39.2962 141.44H49.3587C49.3587 139.795 48.9108 138.409 48.015 137.284C47.1192 136.138 45.9212 135.565 44.4212 135.565C42.9004 135.565 41.6712 136.149 40.7337 137.315C39.8171 138.482 39.3379 139.857 39.2962 141.44ZM56.6237 150.909V126.628H58.9987V150.909H56.6237ZM63.8887 142.503C63.8887 139.836 64.5658 137.68 65.92 136.034C67.2742 134.367 69.0971 133.534 71.3887 133.534C72.8887 133.534 74.17 133.972 75.2325 134.847C76.3158 135.701 77.0346 136.722 77.3887 137.909L75.3262 138.503C75.0137 137.67 74.5033 136.972 73.795 136.409C73.1075 135.847 72.3054 135.565 71.3887 135.565C69.8471 135.565 68.6179 136.222 67.7012 137.534C66.7846 138.847 66.3262 140.503 66.3262 142.503C66.3262 144.628 66.8054 146.315 67.7637 147.565C68.7221 148.815 69.9304 149.44 71.3887 149.44C72.3679 149.44 73.2533 149.128 74.045 148.503C74.8575 147.857 75.4304 147.117 75.7637 146.284L77.8262 146.94C77.3887 148.19 76.5867 149.263 75.42 150.159C74.2742 151.034 72.9304 151.472 71.3887 151.472C69.1596 151.472 67.3471 150.659 65.9512 149.034C64.5762 147.409 63.8887 145.232 63.8887 142.503ZM83.0287 142.503C83.0287 144.628 83.5183 146.315 84.4975 147.565C85.4767 148.815 86.6954 149.44 88.1537 149.44C89.5912 149.44 90.7996 148.815 91.7787 147.565C92.7787 146.315 93.2787 144.628 93.2787 142.503C93.2787 140.336 92.7787 138.638 91.7787 137.409C90.7787 136.18 89.5704 135.565 88.1537 135.565C86.7162 135.565 85.4975 136.18 84.4975 137.409C83.5183 138.638 83.0287 140.336 83.0287 142.503ZM80.5912 142.503C80.5912 139.94 81.2475 137.805 82.56 136.097C83.8933 134.388 85.7579 133.534 88.1537 133.534C90.5287 133.534 92.3829 134.388 93.7162 136.097C95.0496 137.805 95.7162 139.94 95.7162 142.503C95.7162 143.586 95.5704 144.638 95.2787 145.659C95.0079 146.68 94.5808 147.638 93.9975 148.534C93.435 149.409 92.6433 150.117 91.6225 150.659C90.6225 151.201 89.4662 151.472 88.1537 151.472C86.8621 151.472 85.7058 151.211 84.685 150.69C83.685 150.149 82.8933 149.44 82.31 148.565C81.7475 147.67 81.3204 146.711 81.0287 145.69C80.7371 144.67 80.5912 143.607 80.5912 142.503ZM100.231 150.909V134.097H102.606V136.628C102.898 135.857 103.45 135.149 104.262 134.503C105.075 133.857 106.106 133.534 107.356 133.534C108.585 133.534 109.523 133.888 110.169 134.597C110.815 135.284 111.315 136.18 111.669 137.284C111.773 137.013 111.94 136.701 112.169 136.347C112.398 135.992 112.721 135.586 113.137 135.128C113.554 134.67 114.106 134.295 114.794 134.003C115.502 133.69 116.273 133.534 117.106 133.534C120.356 133.534 121.981 135.701 121.981 140.034V150.909H119.544V140.222C119.544 138.68 119.335 137.524 118.919 136.753C118.502 135.961 117.71 135.565 116.544 135.565C115.335 135.565 114.325 136.076 113.512 137.097C112.7 138.097 112.294 139.367 112.294 140.909V150.909H109.919V140.19C109.919 137.107 108.898 135.565 106.856 135.565C105.585 135.565 104.565 136.045 103.794 137.003C103.044 137.961 102.669 139.211 102.669 140.753V150.909H100.231ZM126.309 142.378C126.309 139.753 127.017 137.628 128.434 136.003C129.85 134.357 131.684 133.534 133.934 133.534C136.225 133.534 138.027 134.336 139.34 135.94C140.652 137.524 141.309 139.555 141.309 142.034C141.309 142.326 141.288 142.742 141.246 143.284H128.746C128.746 144.972 129.215 146.42 130.152 147.628C131.09 148.836 132.392 149.44 134.059 149.44C135.142 149.44 136.1 149.19 136.934 148.69C137.767 148.17 138.413 147.482 138.871 146.628L140.934 147.253C140.413 148.482 139.569 149.492 138.402 150.284C137.236 151.076 135.788 151.472 134.059 151.472C131.725 151.472 129.85 150.638 128.434 148.972C127.017 147.305 126.309 145.107 126.309 142.378ZM128.809 141.44H138.871C138.871 139.795 138.423 138.409 137.527 137.284C136.632 136.138 135.434 135.565 133.934 135.565C132.413 135.565 131.184 136.149 130.246 137.315C129.33 138.482 128.85 139.857 128.809 141.44ZM152.339 136.128V134.097H155.276V128.722H157.714V134.097H162.151V136.128H157.714V145.972C157.714 147.013 157.912 147.753 158.307 148.19C158.703 148.628 159.339 148.847 160.214 148.847H162.151V150.909H159.901C156.818 150.909 155.276 149.336 155.276 146.19V136.128H152.339ZM167.572 142.503C167.572 144.628 168.062 146.315 169.041 147.565C170.02 148.815 171.239 149.44 172.697 149.44C174.135 149.44 175.343 148.815 176.322 147.565C177.322 146.315 177.822 144.628 177.822 142.503C177.822 140.336 177.322 138.638 176.322 137.409C175.322 136.18 174.114 135.565 172.697 135.565C171.26 135.565 170.041 136.18 169.041 137.409C168.062 138.638 167.572 140.336 167.572 142.503ZM165.135 142.503C165.135 139.94 165.791 137.805 167.104 136.097C168.437 134.388 170.302 133.534 172.697 133.534C175.072 133.534 176.927 134.388 178.26 136.097C179.593 137.805 180.26 139.94 180.26 142.503C180.26 143.586 180.114 144.638 179.822 145.659C179.552 146.68 179.125 147.638 178.541 148.534C177.979 149.409 177.187 150.117 176.166 150.659C175.166 151.201 174.01 151.472 172.697 151.472C171.406 151.472 170.25 151.211 169.229 150.69C168.229 150.149 167.437 149.44 166.854 148.565C166.291 147.67 165.864 146.711 165.572 145.69C165.281 144.67 165.135 143.607 165.135 142.503ZM193.227 150.909V134.097H195.602V136.628C195.894 135.857 196.446 135.149 197.259 134.503C198.071 133.857 199.102 133.534 200.352 133.534C201.582 133.534 202.519 133.888 203.165 134.597C203.811 135.284 204.311 136.18 204.665 137.284C204.769 137.013 204.936 136.701 205.165 136.347C205.394 135.992 205.717 135.586 206.134 135.128C206.55 134.67 207.102 134.295 207.79 134.003C208.498 133.69 209.269 133.534 210.102 133.534C213.352 133.534 214.977 135.701 214.977 140.034V150.909H212.54V140.222C212.54 138.68 212.332 137.524 211.915 136.753C211.498 135.961 210.707 135.565 209.54 135.565C208.332 135.565 207.321 136.076 206.509 137.097C205.696 138.097 205.29 139.367 205.29 140.909V150.909H202.915V140.19C202.915 137.107 201.894 135.565 199.852 135.565C198.582 135.565 197.561 136.045 196.79 137.003C196.04 137.961 195.665 139.211 195.665 140.753V150.909H193.227ZM218.18 134.097H220.992L224.461 143.94C224.982 145.399 225.451 146.815 225.867 148.19H225.992C226.305 147.17 226.763 145.753 227.367 143.94L230.68 134.097H233.43L226.18 153.722C225.555 155.388 224.826 156.555 223.992 157.222C223.18 157.909 222.18 158.253 220.992 158.253H220.055V156.253H220.617C221.409 156.253 222.076 156.024 222.617 155.565C223.18 155.107 223.68 154.284 224.117 153.097L224.742 151.128L218.18 134.097ZM247.804 142.472C247.804 144.555 248.231 146.242 249.085 147.534C249.939 148.805 251.116 149.44 252.616 149.44C254.033 149.44 255.21 148.815 256.148 147.565C257.085 146.315 257.554 144.617 257.554 142.472C257.554 140.451 257.106 138.795 256.21 137.503C255.335 136.211 254.137 135.565 252.616 135.565C251.2 135.565 250.043 136.222 249.148 137.534C248.252 138.826 247.804 140.472 247.804 142.472ZM245.429 158.253V134.097H247.741V137.128C248.22 136.045 248.908 135.18 249.804 134.534C250.72 133.867 251.762 133.534 252.929 133.534C254.97 133.534 256.658 134.347 257.991 135.972C259.325 137.597 259.991 139.763 259.991 142.472C259.991 145.367 259.293 147.597 257.898 149.159C256.502 150.701 254.845 151.472 252.929 151.472C251.679 151.472 250.616 151.149 249.741 150.503C248.866 149.836 248.22 149.003 247.804 148.003V158.253H245.429ZM265.819 142.503C265.819 144.628 266.308 146.315 267.288 147.565C268.267 148.815 269.485 149.44 270.944 149.44C272.381 149.44 273.59 148.815 274.569 147.565C275.569 146.315 276.069 144.628 276.069 142.503C276.069 140.336 275.569 138.638 274.569 137.409C273.569 136.18 272.36 135.565 270.944 135.565C269.506 135.565 268.288 136.18 267.288 137.409C266.308 138.638 265.819 140.336 265.819 142.503ZM263.381 142.503C263.381 139.94 264.038 137.805 265.35 136.097C266.683 134.388 268.548 133.534 270.944 133.534C273.319 133.534 275.173 134.388 276.506 136.097C277.84 137.805 278.506 139.94 278.506 142.503C278.506 143.586 278.36 144.638 278.069 145.659C277.798 146.68 277.371 147.638 276.788 148.534C276.225 149.409 275.433 150.117 274.413 150.659C273.413 151.201 272.256 151.472 270.944 151.472C269.652 151.472 268.496 151.211 267.475 150.69C266.475 150.149 265.683 149.44 265.1 148.565C264.538 147.67 264.11 146.711 263.819 145.69C263.527 144.67 263.381 143.607 263.381 142.503ZM283.021 150.909V134.097H285.334V136.534C285.667 135.784 286.219 135.097 286.99 134.472C287.761 133.847 288.75 133.534 289.959 133.534C290.855 133.534 291.646 133.68 292.334 133.972V136.159C291.584 135.867 290.792 135.722 289.959 135.722C288.542 135.722 287.438 136.253 286.646 137.315C285.855 138.378 285.459 139.784 285.459 141.534V150.909H283.021ZM294.13 136.128V134.097H297.068V128.722H299.505V134.097H303.943V136.128H299.505V145.972C299.505 147.013 299.703 147.753 300.099 148.19C300.495 148.628 301.13 148.847 302.005 148.847H303.943V150.909H301.693C298.609 150.909 297.068 149.336 297.068 146.19V136.128H294.13ZM306.301 136.128V134.097H309.176V131.503C309.176 129.857 309.593 128.638 310.426 127.847C311.26 127.034 312.405 126.628 313.864 126.628H316.051V128.628H314.176C312.468 128.628 311.614 129.67 311.614 131.753V134.097H315.614V136.128H311.614V150.909H309.176V136.128H306.301ZM320.691 142.503C320.691 144.628 321.181 146.315 322.16 147.565C323.139 148.815 324.358 149.44 325.816 149.44C327.254 149.44 328.462 148.815 329.441 147.565C330.441 146.315 330.941 144.628 330.941 142.503C330.941 140.336 330.441 138.638 329.441 137.409C328.441 136.18 327.233 135.565 325.816 135.565C324.379 135.565 323.16 136.18 322.16 137.409C321.181 138.638 320.691 140.336 320.691 142.503ZM318.254 142.503C318.254 139.94 318.91 137.805 320.223 136.097C321.556 134.388 323.42 133.534 325.816 133.534C328.191 133.534 330.045 134.388 331.379 136.097C332.712 137.805 333.379 139.94 333.379 142.503C333.379 143.586 333.233 144.638 332.941 145.659C332.67 146.68 332.243 147.638 331.66 148.534C331.098 149.409 330.306 150.117 329.285 150.659C328.285 151.201 327.129 151.472 325.816 151.472C324.525 151.472 323.368 151.211 322.348 150.69C321.348 150.149 320.556 149.44 319.973 148.565C319.41 147.67 318.983 146.711 318.691 145.69C318.4 144.67 318.254 143.607 318.254 142.503ZM338.269 150.909V126.628H340.644V150.909H338.269ZM346.909 130.315V127.159H349.971V130.315H346.909ZM347.284 150.909V134.097H349.659V150.909H347.284ZM357.205 142.503C357.205 144.628 357.695 146.315 358.674 147.565C359.653 148.815 360.872 149.44 362.33 149.44C363.767 149.44 364.976 148.815 365.955 147.565C366.955 146.315 367.455 144.628 367.455 142.503C367.455 140.336 366.955 138.638 365.955 137.409C364.955 136.18 363.747 135.565 362.33 135.565C360.892 135.565 359.674 136.18 358.674 137.409C357.695 138.638 357.205 140.336 357.205 142.503ZM354.767 142.503C354.767 139.94 355.424 137.805 356.736 136.097C358.07 134.388 359.934 133.534 362.33 133.534C364.705 133.534 366.559 134.388 367.892 136.097C369.226 137.805 369.892 139.94 369.892 142.503C369.892 143.586 369.747 144.638 369.455 145.659C369.184 146.68 368.757 147.638 368.174 148.534C367.611 149.409 366.82 150.117 365.799 150.659C364.799 151.201 363.642 151.472 362.33 151.472C361.038 151.472 359.882 151.211 358.861 150.69C357.861 150.149 357.07 149.44 356.486 148.565C355.924 147.67 355.497 146.711 355.205 145.69C354.913 144.67 354.767 143.607 354.767 142.503ZM381.485 147.597L383.297 146.534C384.527 148.472 386.193 149.44 388.297 149.44C389.568 149.44 390.579 149.211 391.329 148.753C392.1 148.295 392.485 147.628 392.485 146.753C392.485 146.378 392.391 146.045 392.204 145.753C392.016 145.44 391.808 145.19 391.579 145.003C391.37 144.795 390.985 144.576 390.422 144.347C389.86 144.097 389.391 143.92 389.016 143.815C388.662 143.69 388.068 143.492 387.235 143.222C386.506 142.992 385.881 142.763 385.36 142.534C384.839 142.305 384.297 142.003 383.735 141.628C383.172 141.232 382.735 140.753 382.422 140.19C382.131 139.628 381.985 138.982 381.985 138.253C381.985 136.857 382.547 135.722 383.672 134.847C384.797 133.972 386.339 133.534 388.297 133.534C389.672 133.534 390.933 133.899 392.079 134.628C393.225 135.357 394.047 136.211 394.547 137.19L392.922 138.253C392.485 137.524 391.85 136.899 391.016 136.378C390.204 135.836 389.297 135.565 388.297 135.565C387.027 135.565 386.058 135.815 385.391 136.315C384.745 136.795 384.422 137.451 384.422 138.284C384.422 138.763 384.547 139.201 384.797 139.597C385.047 139.972 385.422 140.305 385.922 140.597C386.443 140.867 386.912 141.086 387.329 141.253C387.766 141.399 388.339 141.586 389.047 141.815C389.652 142.003 390.183 142.18 390.641 142.347C391.12 142.513 391.641 142.742 392.204 143.034C392.766 143.326 393.235 143.638 393.61 143.972C393.985 144.284 394.297 144.69 394.547 145.19C394.797 145.67 394.922 146.19 394.922 146.753C394.922 148.086 394.329 149.211 393.141 150.128C391.975 151.024 390.36 151.472 388.297 151.472C386.797 151.472 385.464 151.138 384.297 150.472C383.131 149.784 382.193 148.826 381.485 147.597ZM399.406 130.315V127.159H402.469V130.315H399.406ZM399.781 150.909V134.097H402.156V150.909H399.781ZM406.515 136.128V134.097H409.453V128.722H411.89V134.097H416.328V136.128H411.89V145.972C411.89 147.013 412.088 147.753 412.484 148.19C412.88 148.628 413.515 148.847 414.39 148.847H416.328V150.909H414.078C410.994 150.909 409.453 149.336 409.453 146.19V136.128H406.515ZM419.311 142.378C419.311 139.753 420.02 137.628 421.436 136.003C422.853 134.357 424.686 133.534 426.936 133.534C429.228 133.534 431.03 134.336 432.342 135.94C433.655 137.524 434.311 139.555 434.311 142.034C434.311 142.326 434.29 142.742 434.249 143.284H421.749C421.749 144.972 422.217 146.42 423.155 147.628C424.092 148.836 425.395 149.44 427.061 149.44C428.145 149.44 429.103 149.19 429.936 148.69C430.77 148.17 431.415 147.482 431.874 146.628L433.936 147.253C433.415 148.482 432.572 149.492 431.405 150.284C430.238 151.076 428.79 151.472 427.061 151.472C424.728 151.472 422.853 150.638 421.436 148.972C420.02 147.305 419.311 145.107 419.311 142.378ZM421.811 141.44H431.874C431.874 139.795 431.426 138.409 430.53 137.284C429.634 136.138 428.436 135.565 426.936 135.565C425.415 135.565 424.186 136.149 423.249 137.315C422.332 138.482 421.853 139.857 421.811 141.44ZM439.795 150.909V147.19H443.733V150.909H439.795Z" fill="#333333"/>
<path d="M8.53125 89V40.9062H12.6562V49.5312H12.75C13.6875 46.9062 15.4062 44.5625 17.9062 42.5C20.4062 40.375 23.625 39.3125 27.5625 39.3125C34.5 39.3125 38.7812 43.375 40.4062 51.5C40.5312 50.75 40.9062 49.7812 41.5312 48.5938C42.2188 47.4062 43.1562 46.0938 44.3438 44.6562C45.5938 43.1562 47.3125 41.9062 49.5 40.9062C51.75 39.8438 54.2188 39.3125 56.9062 39.3125C61.5938 39.3125 65 40.8438 67.125 43.9062C69.3125 46.9688 70.4062 51.5938 70.4062 57.7812V89H66.0938V58.4375C66.0938 53.3125 65.375 49.4375 63.9375 46.8125C62.5625 44.1875 59.875 42.875 55.875 42.875C51.9375 42.875 48.5625 44.5 45.75 47.75C43 50.9375 41.625 55.0938 41.625 60.2188V89H37.3125V58.4375C37.3125 48.0625 33.8125 42.875 26.8125 42.875C22.6875 42.875 19.3125 44.4375 16.6875 47.5625C14.0625 50.625 12.75 54.625 12.75 59.5625V89H8.53125ZM81.4463 80.5625L84.7275 78.6875C88.29 84.3125 93.3838 87.125 100.009 87.125C104.134 87.125 107.478 86.2812 110.04 84.5938C112.603 82.8438 113.884 80.5312 113.884 77.6562C113.884 76.5312 113.728 75.5312 113.415 74.6562C113.103 73.7812 112.478 72.9688 111.54 72.2188C110.603 71.4688 109.821 70.875 109.196 70.4375C108.571 70 107.415 69.4688 105.728 68.8438C104.103 68.2188 102.915 67.7812 102.165 67.5312C101.478 67.2812 100.071 66.8438 97.9463 66.2188C95.7588 65.5312 93.915 64.875 92.415 64.25C90.915 63.625 89.3213 62.7812 87.6338 61.7188C86.0088 60.5938 84.7588 59.25 83.8838 57.6875C83.0713 56.0625 82.665 54.2188 82.665 52.1562C82.665 48.2188 84.2588 45.0938 87.4463 42.7812C90.6963 40.4688 94.8838 39.3125 100.009 39.3125C103.759 39.3125 107.134 40.25 110.134 42.125C113.196 44 115.446 46.2812 116.884 48.9688L113.884 50.8438C112.509 48.5312 110.603 46.625 108.165 45.125C105.728 43.625 103.009 42.875 100.009 42.875C96.0088 42.875 92.8213 43.75 90.4463 45.5C88.1338 47.1875 86.9775 49.4375 86.9775 52.25C86.9775 55.25 88.165 57.5938 90.54 59.2812C92.9775 60.9688 96.29 62.375 100.478 63.5C102.915 64.1875 104.978 64.8438 106.665 65.4688C108.353 66.0938 110.165 66.9688 112.103 68.0938C114.04 69.1562 115.509 70.5 116.509 72.125C117.571 73.75 118.103 75.5938 118.103 77.6562C118.103 81.3438 116.509 84.4375 113.321 86.9375C110.196 89.4375 105.759 90.6875 100.009 90.6875C91.6338 90.6875 85.4463 87.3125 81.4463 80.5625ZM130.268 89V18.5938H134.674V68.5625L159.143 40.9062H164.768L147.893 59.9375L167.111 89H161.955L144.986 63.0312L134.674 74.4688V89H130.268ZM178.804 77.5625C178.804 80.1875 179.898 82.4375 182.085 84.3125C184.335 86.1875 187.46 87.125 191.46 87.125C196.335 87.125 200.554 85.5625 204.116 82.4375C207.679 79.25 209.46 75.1875 209.46 70.25V61.625C206.398 62.6875 201.46 63.75 194.648 64.8125C184.085 66.5 178.804 70.75 178.804 77.5625ZM174.491 77.75C174.491 73.4375 176.054 69.9375 179.179 67.25C182.366 64.5 187.491 62.5938 194.554 61.5312C201.616 60.4688 206.585 59.3438 209.46 58.1562V55.625C209.46 51.875 208.179 48.8125 205.616 46.4375C203.116 44 199.585 42.7812 195.023 42.7812C192.023 42.7812 189.148 43.5 186.398 44.9375C183.648 46.3125 181.335 48.2188 179.46 50.6562L176.554 48.5C178.554 45.8125 181.179 43.625 184.429 41.9375C187.679 40.1875 191.179 39.3125 194.929 39.3125C201.304 39.3125 206.023 40.9062 209.085 44.0938C212.148 47.2812 213.679 51.5 213.679 56.75V89H209.554V79.4375C208.429 82.4375 206.179 85.0625 202.804 87.3125C199.429 89.5625 195.523 90.6875 191.085 90.6875C185.96 90.6875 181.898 89.4688 178.898 87.0312C175.96 84.5938 174.491 81.5 174.491 77.75ZM229.406 89V18.5938H233.719V52.1562C234.531 48.9688 236.375 46.0312 239.25 43.3438C242.125 40.6562 245.625 39.3125 249.75 39.3125C255.688 39.3125 260.469 41.625 264.094 46.25C267.781 50.8125 269.625 57.0312 269.625 64.9062C269.625 73.4062 267.625 79.8438 263.625 84.2188C259.688 88.5312 255.031 90.6875 249.656 90.6875C245.844 90.6875 242.531 89.5312 239.719 87.2188C236.969 84.8438 234.969 81.9375 233.719 78.5V89H229.406ZM233.531 64.9062C233.531 71.7812 235.062 77.2188 238.125 81.2188C241.188 85.1562 244.906 87.125 249.281 87.125C254.031 87.125 257.906 85.125 260.906 81.125C263.906 77.125 265.406 71.7188 265.406 64.9062C265.406 58.1562 263.906 52.8125 260.906 48.875C257.969 44.875 254.125 42.875 249.375 42.875C245.062 42.875 241.344 44.8438 238.219 48.7812C235.094 52.7188 233.531 58.0938 233.531 64.9062Z" fill="#333333"/>
</svg>
