<svg width="60" height="60" viewBox="0 0 60 60" fill="none" xmlns="http://www.w3.org/2000/svg">
<g clip-path="url(#clip0_226_218)">
<path fill-rule="evenodd" clip-rule="evenodd" d="M23.5528 19.5075C21.8269 19.0739 20.0986 19.2131 18.2747 19.4972C18.2747 22.687 18.2681 25.7911 18.292 28.8956C18.293 29.0545 18.5316 29.3311 18.6863 29.3522C20.6752 29.6208 22.6533 29.6423 24.5133 28.7358C26.4375 27.7983 27.4177 25.838 27.1636 23.5364C26.933 21.4406 25.6922 20.0452 23.5528 19.5075ZM59.5313 29.9827V1.53984C59.5313 0.557344 59.542 0.46875 58.5881 0.46875H1.63078C0.703125 0.46875 0.46875 0.557813 0.46875 1.49344V58.4508C0.46875 59.3967 0.586875 59.3981 1.50422 59.3981C20.5144 59.3986 39.5813 59.3939 58.5914 59.4155C59.3288 59.4164 59.5266 59.22 59.5247 58.4972C59.4994 48.9923 59.5313 39.4866 59.5313 29.9827ZM26.415 32.7202C23.8102 33.6492 21.0938 33.7012 18.2813 33.4833V44.0625H13.125V43.4053C13.125 34.5483 13.0842 25.6922 13.0594 16.8356C13.0566 16.1002 13.1733 15.7448 14.002 15.6605C17.9077 15.2611 21.7913 14.812 25.6748 15.7228C29.8495 16.7011 32.2566 19.4611 32.4394 23.2744C32.6658 27.9966 30.5906 31.2309 26.415 32.7202ZM47.1853 38.6986C46.9866 41.4038 45.4613 43.1798 42.9595 44.0386C39.6117 45.188 36.2822 44.9212 33.0103 43.6209C32.4745 43.4077 32.3709 43.1377 32.5477 42.5916C32.8697 41.595 33.1055 40.5703 33.3539 39.645C34.7372 40.0509 36.0525 40.5577 37.4152 40.7972C38.3775 40.9664 39.4177 40.867 40.3959 40.7138C41.273 40.5759 41.9039 39.9806 42.0478 39.0394C42.1941 38.0827 41.9058 37.2539 41.0611 36.7448C40.3898 36.3408 39.6502 36.0516 38.9409 35.7127C37.8005 35.1675 36.585 34.74 35.5331 34.058C31.3936 31.3734 32.7412 26.3784 35.5036 24.4973C36.9816 23.4914 38.617 23.0452 40.3678 22.9838C42.427 22.9116 44.4098 23.2669 46.3575 24.2133L45.3286 27.8644C44.513 27.5756 43.7536 27.2006 42.952 27.0516C42.0009 26.8744 41.0034 26.7755 40.0434 26.8537C38.7563 26.9592 38.0025 27.8475 38.0025 28.9491C38.0025 29.6016 38.25 30.1537 38.7942 30.4702C39.5752 30.9244 40.4039 31.2989 41.2252 31.6791C42.1139 32.0902 43.0523 32.4061 43.9078 32.8753C46.1906 34.1269 47.3789 36.0628 47.1853 38.6986Z" fill="#333333"/>
</g>
<defs>
<clipPath id="clip0_226_218">
<rect width="60" height="60" fill="white"/>
</clipPath>
</defs>
</svg>
