<svg width="61" height="60" viewBox="0 0 61 60" fill="none" xmlns="http://www.w3.org/2000/svg">
<g clip-path="url(#clip0_355_86)">
<path d="M47.8737 28.6987C47.8737 25.5187 46.7299 23.3174 45.7512 21.6037L45.4512 21.1162C44.2624 19.2037 43.2237 17.5237 43.2237 15.5662C43.2237 13.2037 45.0162 10.9987 47.5437 10.9987C47.6187 10.9987 47.6899 11.0062 47.7612 11.0099L47.8774 11.0212C43.1381 6.66797 36.9352 4.25587 30.4999 4.26369C26.2349 4.2615 22.0364 5.32052 18.2827 7.34533C14.529 9.37013 11.3381 12.2971 8.99744 15.8624C9.59744 15.8812 10.1712 15.8962 10.6549 15.8962C13.3437 15.8962 17.5099 15.5699 17.5099 15.5699C18.8974 15.4874 19.0624 17.5237 17.6749 17.6887C17.6749 17.6887 16.2837 17.8537 14.7312 17.9324L24.1062 45.8099L29.7312 28.9124L25.7187 17.9287C24.3349 17.8462 23.0224 17.6849 23.0224 17.6849C21.6349 17.6024 21.7999 15.4799 23.1837 15.5624C23.1837 15.5624 27.4362 15.8887 29.9637 15.8887C32.6562 15.8887 36.8262 15.5624 36.8262 15.5624C38.2137 15.4799 38.3749 17.5199 36.9874 17.6849C36.9874 17.6849 35.5924 17.8462 34.0437 17.9287L43.3437 45.5924L45.9087 37.0162L46.1112 36.3674C47.1237 33.1424 47.8699 30.7612 47.8699 28.6949L47.8737 28.6987ZM4.76369 29.9999C4.76344 34.8327 6.12374 39.568 8.68893 43.6638C11.2541 47.7596 14.9206 51.0505 19.2687 53.1599L6.98744 19.5224C5.51681 22.8194 4.75902 26.3898 4.76369 29.9999Z" fill="#333333"/>
<path d="M23.2285 54.6864L30.9535 32.2501L38.8623 53.9251C38.9148 54.0489 38.9748 54.1651 39.046 54.2776C33.9477 56.0738 28.4128 56.2168 23.2285 54.6864ZM53.0785 17.6514C53.191 18.4726 53.2548 19.3501 53.2548 20.2989C53.2548 22.9089 52.7673 25.8451 51.2973 29.5164L43.4373 52.2414C49.2374 48.8715 53.4918 43.3692 55.2936 36.9077C57.0953 30.4461 56.3018 23.5363 53.0823 17.6514H53.0785Z" fill="#333333"/>
<path fill-rule="evenodd" clip-rule="evenodd" d="M0.5 30C0.5 13.4588 13.9588 0 30.5 0C47.0375 0 60.5 13.4588 60.5 30C60.5 46.5412 47.0375 60 30.5 60C13.9588 60 0.5 46.5412 0.5 30ZM1.87625 30C1.87625 45.7837 14.7162 58.6238 30.5 58.6238C46.28 58.6238 59.12 45.7837 59.12 30C59.12 14.2125 46.28 1.37625 30.5 1.37625C14.7125 1.37625 1.87625 14.2125 1.87625 30Z" fill="#333333"/>
</g>
<defs>
<clipPath id="clip0_355_86">
<rect width="60" height="60" fill="white" transform="translate(0.5)"/>
</clipPath>
</defs>
</svg>
